<svg width="896" height="386" viewBox="0 0 896 386" fill="none" xmlns="http://www.w3.org/2000/svg">
<rect x="82.5887" y="156.72" width="74.5708" height="111.881" transform="rotate(18.942 82.5887 156.72)" fill="#129490"/>
<path d="M52.9271 243.258C54.3346 239.194 59.0394 237.349 62.8344 239.372L105.518 262.126C110.791 264.937 110.344 272.638 104.781 274.82L46.2663 297.772C40.703 299.954 35.1399 294.611 37.0958 288.964L52.9271 243.258Z" fill="#129490"/>
<path d="M117.484 262.276C121.72 263.019 124.291 267.369 122.899 271.438L107.235 317.201C105.3 322.855 97.6264 323.641 94.5859 318.496L62.6058 264.385C59.5653 259.24 63.954 252.897 69.8402 253.928L117.484 262.276Z" fill="#129490"/>
<rect x="92.4512" y="187.914" width="74.5708" height="111.881" transform="rotate(-19.2184 92.4512 187.914)" fill="#129490"/>
<path d="M122.042 274.243C120.638 270.178 123.197 265.82 127.431 265.066L175.051 256.585C180.934 255.537 185.341 261.868 182.315 267.021L150.486 321.222C147.46 326.375 139.785 325.611 137.834 319.962L122.042 274.243Z" fill="#129490"/>
<path d="M184.553 249.907C188.342 247.874 193.052 249.706 194.471 253.765L210.43 299.427C212.402 305.068 206.854 310.426 201.285 308.26L142.706 285.472C137.136 283.306 136.668 275.607 141.933 272.781L184.553 249.907Z" fill="#129490"/>
<circle cx="124.005" cy="125.023" r="60.9864" fill="#FF9B71"/>
<path d="M81.7997 44.2827C84.5731 31.4933 100.151 26.5022 109.841 35.2986L131.413 54.8834C141.102 63.6799 137.636 79.6666 125.173 83.6595L97.4259 92.5495C84.9633 96.5424 72.8518 85.5469 75.6251 72.7575L81.7997 44.2827Z" fill="#FF9B71"/>
<path d="M137.332 35.001C146.692 25.8547 162.443 30.2705 165.684 42.9494L172.9 71.1783C176.141 83.8572 164.441 95.2901 151.841 91.7575L123.786 83.8923C111.185 80.3596 107.134 64.511 116.493 55.3647L137.332 35.001Z" fill="#FF9B71"/>
<path d="M187.268 61.8796C200.215 59.9744 210.369 72.7994 205.545 84.9646L194.806 112.05C189.982 124.215 173.798 126.596 165.675 116.336L147.588 93.4929C139.465 83.2328 145.494 68.0264 158.441 66.1212L187.268 61.8796Z" fill="#FF9B71"/>
<path d="M214.641 112.007C225.719 118.975 225.1 135.321 213.527 141.431L187.761 155.034C176.188 161.143 162.341 152.434 162.836 139.357L163.939 110.241C164.434 97.1639 178.9 89.5268 189.978 96.4944L214.641 112.007Z" fill="#FF9B71"/>
<path d="M205.029 171.003C208.413 183.644 196.843 195.208 184.203 191.818L156.061 184.27C143.421 180.88 139.191 165.078 148.447 155.827L169.055 135.229C178.311 125.978 194.111 130.215 197.495 142.857L205.029 171.003Z" fill="#FF9B71"/>
<path d="M167.375 205.451C165.699 218.43 150.601 224.727 140.199 216.785L117.041 199.104C106.639 191.162 108.735 174.939 120.814 169.901L147.705 158.686C159.784 153.649 172.786 163.576 171.109 176.555L167.375 205.451Z" fill="#FF9B71"/>
<path d="M109.174 218.829C98.7505 226.741 83.6705 220.401 82.0305 207.418L78.3792 178.511C76.7392 165.528 89.7691 155.638 101.833 160.709L128.693 172C140.757 177.072 142.807 193.301 132.383 201.213L109.174 218.829Z" fill="#FF9B71"/>
<path d="M61.2086 192.54C48.2798 194.566 38.0063 181.836 42.7164 169.627L53.2032 142.443C57.9133 130.233 74.0743 127.701 82.2931 137.885L100.592 160.559C108.811 170.743 102.923 186.004 89.994 188.03L61.2086 192.54Z" fill="#FF9B71"/>
<path d="M32.5151 140.05C21.5411 132.92 22.4004 116.584 34.0618 110.645L60.0253 97.4227C71.6867 91.4838 85.4041 100.396 84.7167 113.464L83.1862 142.561C82.4988 155.629 67.922 163.053 56.948 155.923L32.5151 140.05Z" fill="#FF9B71"/>
<path d="M42.9771 83.3647C38.7742 70.9714 49.5636 58.6758 62.398 61.2327L90.9731 66.9255C103.807 69.4824 109.061 84.9741 100.429 94.8105L81.2119 116.711C72.5803 126.547 56.5374 123.351 52.3345 110.958L42.9771 83.3647Z" fill="#FF9B71"/>
<path d="M397.128 181.779V217.841C395.711 219.55 393.524 221.404 390.566 223.404C387.607 225.362 383.795 227.05 379.128 228.466C374.461 229.883 368.816 230.591 362.191 230.591C356.316 230.591 350.961 229.633 346.128 227.716C341.295 225.758 337.128 222.904 333.628 219.154C330.17 215.404 327.503 210.821 325.628 205.404C323.753 199.946 322.816 193.716 322.816 186.716V181.029C322.816 174.029 323.711 167.8 325.503 162.341C327.336 156.883 329.941 152.279 333.316 148.529C336.691 144.779 340.711 141.925 345.378 139.966C350.045 138.008 355.232 137.029 360.941 137.029C368.857 137.029 375.357 138.321 380.441 140.904C385.524 143.446 389.399 146.987 392.066 151.529C394.774 156.029 396.441 161.196 397.066 167.029H378.878C378.42 163.946 377.545 161.258 376.253 158.966C374.961 156.675 373.107 154.883 370.691 153.591C368.316 152.3 365.232 151.654 361.441 151.654C358.316 151.654 355.524 152.3 353.066 153.591C350.649 154.841 348.607 156.696 346.941 159.154C345.274 161.612 344.003 164.654 343.128 168.279C342.253 171.904 341.816 176.112 341.816 180.904V186.716C341.816 191.466 342.274 195.675 343.191 199.341C344.107 202.966 345.461 206.029 347.253 208.529C349.086 210.987 351.336 212.841 354.003 214.091C356.67 215.341 359.774 215.966 363.316 215.966C366.274 215.966 368.732 215.716 370.691 215.216C372.691 214.716 374.295 214.112 375.503 213.404C376.753 212.654 377.711 211.946 378.378 211.279V195.154H361.253V181.779H397.128ZM429.128 176.466V229.341H411.128V161.716H428.066L429.128 176.466ZM449.503 161.279L449.191 177.966C448.316 177.841 447.253 177.737 446.003 177.654C444.795 177.529 443.691 177.466 442.691 177.466C440.149 177.466 437.941 177.8 436.066 178.466C434.232 179.091 432.691 180.029 431.441 181.279C430.232 182.529 429.316 184.05 428.691 185.841C428.107 187.633 427.774 189.675 427.691 191.966L424.066 190.841C424.066 186.466 424.503 182.446 425.378 178.779C426.253 175.071 427.524 171.841 429.191 169.091C430.899 166.341 432.982 164.216 435.441 162.716C437.899 161.216 440.711 160.466 443.878 160.466C444.878 160.466 445.899 160.55 446.941 160.716C447.982 160.841 448.836 161.029 449.503 161.279ZM487.878 230.591C482.628 230.591 477.92 229.758 473.753 228.091C469.586 226.383 466.045 224.029 463.128 221.029C460.253 218.029 458.045 214.55 456.503 210.591C454.961 206.591 454.191 202.341 454.191 197.841V195.341C454.191 190.216 454.92 185.529 456.378 181.279C457.836 177.029 459.92 173.341 462.628 170.216C465.378 167.091 468.711 164.696 472.628 163.029C476.545 161.321 480.961 160.466 485.878 160.466C490.67 160.466 494.92 161.258 498.628 162.841C502.336 164.425 505.441 166.675 507.941 169.591C510.482 172.508 512.399 176.008 513.691 180.091C514.982 184.133 515.628 188.633 515.628 193.591V201.091H461.878V189.091H497.941V187.716C497.941 185.216 497.482 182.987 496.566 181.029C495.691 179.029 494.357 177.446 492.566 176.279C490.774 175.112 488.482 174.529 485.691 174.529C483.316 174.529 481.274 175.05 479.566 176.091C477.857 177.133 476.461 178.591 475.378 180.466C474.336 182.341 473.545 184.55 473.003 187.091C472.503 189.591 472.253 192.341 472.253 195.341V197.841C472.253 200.55 472.628 203.05 473.378 205.341C474.17 207.633 475.274 209.612 476.691 211.279C478.149 212.946 479.899 214.237 481.941 215.154C484.024 216.071 486.378 216.529 489.003 216.529C492.253 216.529 495.274 215.904 498.066 214.654C500.899 213.362 503.336 211.425 505.378 208.841L514.128 218.341C512.711 220.383 510.774 222.341 508.316 224.216C505.899 226.091 502.982 227.633 499.566 228.841C496.149 230.008 492.253 230.591 487.878 230.591ZM557.003 230.591C551.753 230.591 547.045 229.758 542.878 228.091C538.711 226.383 535.17 224.029 532.253 221.029C529.378 218.029 527.17 214.55 525.628 210.591C524.086 206.591 523.316 202.341 523.316 197.841V195.341C523.316 190.216 524.045 185.529 525.503 181.279C526.961 177.029 529.045 173.341 531.753 170.216C534.503 167.091 537.836 164.696 541.753 163.029C545.67 161.321 550.086 160.466 555.003 160.466C559.795 160.466 564.045 161.258 567.753 162.841C571.461 164.425 574.566 166.675 577.066 169.591C579.607 172.508 581.524 176.008 582.816 180.091C584.107 184.133 584.753 188.633 584.753 193.591V201.091H531.003V189.091H567.066V187.716C567.066 185.216 566.607 182.987 565.691 181.029C564.816 179.029 563.482 177.446 561.691 176.279C559.899 175.112 557.607 174.529 554.816 174.529C552.441 174.529 550.399 175.05 548.691 176.091C546.982 177.133 545.586 178.591 544.503 180.466C543.461 182.341 542.67 184.55 542.128 187.091C541.628 189.591 541.378 192.341 541.378 195.341V197.841C541.378 200.55 541.753 203.05 542.503 205.341C543.295 207.633 544.399 209.612 545.816 211.279C547.274 212.946 549.024 214.237 551.066 215.154C553.149 216.071 555.503 216.529 558.128 216.529C561.378 216.529 564.399 215.904 567.191 214.654C570.024 213.362 572.461 211.425 574.503 208.841L583.253 218.341C581.836 220.383 579.899 222.341 577.441 224.216C575.024 226.091 572.107 227.633 568.691 228.841C565.274 230.008 561.378 230.591 557.003 230.591ZM612.628 176.154V229.341H594.628V161.716H611.503L612.628 176.154ZM610.003 193.154H605.128C605.128 188.154 605.774 183.654 607.066 179.654C608.357 175.612 610.17 172.175 612.503 169.341C614.836 166.466 617.607 164.279 620.816 162.779C624.066 161.237 627.691 160.466 631.691 160.466C634.857 160.466 637.753 160.925 640.378 161.841C643.003 162.758 645.253 164.216 647.128 166.216C649.045 168.216 650.503 170.862 651.503 174.154C652.545 177.446 653.066 181.466 653.066 186.216V229.341H634.941V186.154C634.941 183.154 634.524 180.821 633.691 179.154C632.857 177.487 631.628 176.321 630.003 175.654C628.42 174.946 626.461 174.591 624.128 174.591C621.711 174.591 619.607 175.071 617.816 176.029C616.066 176.987 614.607 178.321 613.441 180.029C612.316 181.696 611.461 183.654 610.878 185.904C610.295 188.154 610.003 190.571 610.003 193.154ZM706.691 214.591V133.341H724.816V229.341H708.503L706.691 214.591ZM663.941 196.341V195.029C663.941 189.862 664.524 185.175 665.691 180.966C666.857 176.716 668.566 173.071 670.816 170.029C673.066 166.987 675.836 164.633 679.128 162.966C682.42 161.3 686.17 160.466 690.378 160.466C694.336 160.466 697.795 161.3 700.753 162.966C703.753 164.633 706.295 167.008 708.378 170.091C710.503 173.133 712.211 176.737 713.503 180.904C714.795 185.029 715.732 189.55 716.316 194.466V197.341C715.732 202.05 714.795 206.425 713.503 210.466C712.211 214.508 710.503 218.05 708.378 221.091C706.295 224.091 703.753 226.425 700.753 228.091C697.753 229.758 694.253 230.591 690.253 230.591C686.045 230.591 682.295 229.737 679.003 228.029C675.753 226.321 673.003 223.925 670.753 220.841C668.545 217.758 666.857 214.133 665.691 209.966C664.524 205.8 663.941 201.258 663.941 196.341ZM681.941 195.029V196.341C681.941 199.133 682.149 201.737 682.566 204.154C683.024 206.571 683.753 208.716 684.753 210.591C685.795 212.425 687.128 213.862 688.753 214.904C690.42 215.904 692.441 216.404 694.816 216.404C697.899 216.404 700.441 215.716 702.441 214.341C704.441 212.925 705.961 210.987 707.003 208.529C708.086 206.071 708.711 203.237 708.878 200.029V191.841C708.753 189.216 708.378 186.862 707.753 184.779C707.17 182.654 706.295 180.841 705.128 179.341C704.003 177.841 702.586 176.675 700.878 175.841C699.211 175.008 697.232 174.591 694.941 174.591C692.607 174.591 690.607 175.133 688.941 176.216C687.274 177.258 685.92 178.696 684.878 180.529C683.878 182.362 683.128 184.529 682.628 187.029C682.17 189.487 681.941 192.154 681.941 195.029ZM758.941 221.716L776.878 161.716H796.191L769.003 239.529C768.42 241.237 767.628 243.071 766.628 245.029C765.67 246.987 764.357 248.841 762.691 250.591C761.066 252.383 759.003 253.841 756.503 254.966C754.045 256.091 751.024 256.654 747.441 256.654C745.732 256.654 744.336 256.55 743.253 256.341C742.17 256.133 740.878 255.841 739.378 255.466V242.279C739.836 242.279 740.316 242.279 740.816 242.279C741.316 242.321 741.795 242.341 742.253 242.341C744.628 242.341 746.566 242.071 748.066 241.529C749.566 240.987 750.774 240.154 751.691 239.029C752.607 237.946 753.336 236.529 753.878 234.779L758.941 221.716ZM751.441 161.716L766.128 210.716L768.691 229.779L756.441 231.091L732.128 161.716H751.441Z" fill="#129490"/>
</svg>
