<svg width="197" height="292" viewBox="0 0 197 292" fill="none" xmlns="http://www.w3.org/2000/svg">
<path fill-rule="evenodd" clip-rule="evenodd" d="M107.506 143.088L58.2526 126.184L25.0079 223.052L13.5758 256.057C11.6199 261.704 17.183 267.047 22.7463 264.865L51.3269 253.655L69.9305 285.133C72.971 290.277 80.6443 289.492 82.5795 283.838L97.0202 241.648C97.0485 241.743 97.079 241.837 97.1116 241.932L112.525 286.554C114.476 292.203 122.151 292.966 125.177 287.813L140.442 261.819L174.801 275.185C180.37 277.351 185.918 271.993 183.946 266.352L168.37 221.786C168.246 221.432 168.098 221.095 167.927 220.776L137.232 132.725L107.506 143.088Z" fill="#129490"/>
<mask id="path-2-outside-1_6_66" maskUnits="userSpaceOnUse" x="0.649841" y="-0.0845947" width="197" height="192" fill="black">
<rect fill="white" x="0.649841" y="-0.0845947" width="197" height="192"/>
<path fill-rule="evenodd" clip-rule="evenodd" d="M111.77 6.76799C121.13 -2.3783 136.881 2.03749 140.122 14.7164L145.362 35.2147L160.768 32.9478C173.715 31.0427 183.869 43.8677 179.046 56.0329L172.564 72.38L187.766 81.9421C198.844 88.9097 198.225 105.256 186.652 111.366L172.924 118.613L178.589 139.777C181.973 152.419 170.403 163.983 157.764 160.593L143.897 156.874L141.729 173.656C140.052 186.635 124.954 192.931 114.553 184.99L101.036 174.67L84.7882 187.002C74.3642 194.914 59.2842 188.574 57.6442 175.591L55.4933 158.562L37.6889 161.352C24.7601 163.378 14.4866 150.648 19.1967 138.438L25.9899 120.829L9.38871 110.043C-1.58526 102.914 -0.725984 86.5781 10.9354 80.6392L25.7515 73.0936L19.4349 54.4673C15.2321 42.0739 26.0215 29.7784 38.8559 32.3353L53.22 35.1969L57.3758 16.0319C60.1492 3.24252 75.7274 -1.74863 85.4166 7.04781L98.9297 19.3158L111.77 6.76799Z"/>
</mask>
<path fill-rule="evenodd" clip-rule="evenodd" d="M111.77 6.76799C121.13 -2.3783 136.881 2.03749 140.122 14.7164L145.362 35.2147L160.768 32.9478C173.715 31.0427 183.869 43.8677 179.046 56.0329L172.564 72.38L187.766 81.9421C198.844 88.9097 198.225 105.256 186.652 111.366L172.924 118.613L178.589 139.777C181.973 152.419 170.403 163.983 157.764 160.593L143.897 156.874L141.729 173.656C140.052 186.635 124.954 192.931 114.553 184.99L101.036 174.67L84.7882 187.002C74.3642 194.914 59.2842 188.574 57.6442 175.591L55.4933 158.562L37.6889 161.352C24.7601 163.378 14.4866 150.648 19.1967 138.438L25.9899 120.829L9.38871 110.043C-1.58526 102.914 -0.725984 86.5781 10.9354 80.6392L25.7515 73.0936L19.4349 54.4673C15.2321 42.0739 26.0215 29.7784 38.8559 32.3353L53.22 35.1969L57.3758 16.0319C60.1492 3.24252 75.7274 -1.74863 85.4166 7.04781L98.9297 19.3158L111.77 6.76799Z" fill="#FF9B71"/>
<path d="M140.122 14.7164L139.153 14.9641L139.153 14.9641L140.122 14.7164ZM111.77 6.76799L111.071 6.05278L111.071 6.05278L111.77 6.76799ZM145.362 35.2147L144.393 35.4624L144.616 36.3352L145.508 36.2041L145.362 35.2147ZM160.768 32.9478L160.913 33.9372L160.913 33.9372L160.768 32.9478ZM179.046 56.0329L178.116 55.6643L178.116 55.6643L179.046 56.0329ZM172.564 72.38L171.634 72.0114L171.328 72.784L172.031 73.2265L172.564 72.38ZM187.766 81.9421L187.234 82.7886L187.234 82.7886L187.766 81.9421ZM186.652 111.366L187.119 112.25L187.119 112.25L186.652 111.366ZM172.924 118.613L172.457 117.729L171.752 118.101L171.958 118.872L172.924 118.613ZM178.589 139.777L179.555 139.519L179.555 139.519L178.589 139.777ZM157.764 160.593L158.023 159.627L158.023 159.627L157.764 160.593ZM143.897 156.874L144.156 155.908L143.052 155.612L142.906 156.746L143.897 156.874ZM141.729 173.656L142.721 173.784L142.721 173.784L141.729 173.656ZM114.553 184.99L113.946 185.785L113.946 185.785L114.553 184.99ZM101.036 174.67L101.642 173.875L101.037 173.413L100.431 173.873L101.036 174.67ZM84.7882 187.002L84.1836 186.205L84.1836 186.205L84.7882 187.002ZM57.6442 175.591L56.6521 175.716L56.6521 175.716L57.6442 175.591ZM55.4933 158.562L56.4854 158.437L56.3563 157.415L55.3385 157.575L55.4933 158.562ZM37.6889 161.352L37.8437 162.34L37.8437 162.34L37.6889 161.352ZM19.1967 138.438L18.2637 138.078L18.2637 138.078L19.1967 138.438ZM25.9899 120.829L26.9229 121.189L27.2148 120.432L26.5347 119.99L25.9899 120.829ZM9.38871 110.043L9.93351 109.205L9.93351 109.205L9.38871 110.043ZM10.9354 80.6392L10.4816 79.7481L10.4816 79.7481L10.9354 80.6392ZM25.7515 73.0936L26.2054 73.9847L26.9765 73.592L26.6986 72.7724L25.7515 73.0936ZM19.4349 54.4673L20.382 54.1461L20.382 54.1461L19.4349 54.4673ZM38.8559 32.3353L38.6605 33.316L38.6605 33.316L38.8559 32.3353ZM53.22 35.1969L53.0246 36.1776L53.9889 36.3697L54.1973 35.4088L53.22 35.1969ZM57.3758 16.0319L56.3985 15.82L57.3758 16.0319ZM85.4166 7.04781L86.0888 6.30742L86.0888 6.30742L85.4166 7.04781ZM98.9297 19.3158L98.2576 20.0562L98.955 20.6893L99.6287 20.031L98.9297 19.3158ZM141.091 14.4687C137.659 1.044 120.982 -3.63153 111.071 6.05278L112.469 7.48321C121.278 -1.12507 136.103 3.03097 139.153 14.9641L141.091 14.4687ZM146.331 34.9671L141.091 14.4687L139.153 14.9641L144.393 35.4624L146.331 34.9671ZM160.622 31.9585L145.216 34.2254L145.508 36.2041L160.913 33.9372L160.622 31.9585ZM179.975 56.4015C185.083 43.5207 174.331 29.9413 160.622 31.9585L160.913 33.9372C173.099 32.1441 182.656 44.2147 178.116 55.6643L179.975 56.4015ZM173.493 72.7486L179.975 56.4015L178.116 55.6643L171.634 72.0114L173.493 72.7486ZM188.299 81.0957L173.096 71.5336L172.031 73.2265L187.234 82.7886L188.299 81.0957ZM187.119 112.25C199.372 105.781 200.028 88.4731 188.299 81.0957L187.234 82.7886C197.66 89.3463 197.077 104.731 186.185 110.482L187.119 112.25ZM173.391 119.498L187.119 112.25L186.185 110.482L172.457 117.729L173.391 119.498ZM179.555 139.519L173.89 118.355L171.958 118.872L177.623 140.036L179.555 139.519ZM157.505 161.559C170.888 165.148 183.138 152.904 179.555 139.519L177.623 140.036C180.808 151.934 169.919 162.818 158.023 159.627L157.505 161.559ZM143.638 157.84L157.505 161.559L158.023 159.627L144.156 155.908L143.638 157.84ZM142.721 173.784L144.889 157.002L142.906 156.746L140.737 173.528L142.721 173.784ZM113.946 185.785C124.959 194.193 140.945 187.527 142.721 173.784L140.737 173.528C139.159 185.743 124.949 191.67 115.16 184.195L113.946 185.785ZM100.429 175.464L113.946 185.785L115.16 184.195L101.642 173.875L100.429 175.464ZM85.3928 187.798L101.64 175.466L100.431 173.873L84.1836 186.205L85.3928 187.798ZM56.6521 175.716C58.3886 189.463 74.3556 196.176 85.3928 187.798L84.1836 186.205C74.3728 193.652 60.1799 187.685 58.6363 175.466L56.6521 175.716ZM54.5012 158.688L56.6521 175.716L58.6363 175.466L56.4854 158.437L54.5012 158.688ZM37.8437 162.34L55.6481 159.55L55.3385 157.575L37.5342 160.364L37.8437 162.34ZM18.2637 138.078C13.2766 151.006 24.1544 164.485 37.8437 162.34L37.5342 160.364C25.3658 162.271 15.6967 150.29 20.1297 138.798L18.2637 138.078ZM25.057 120.469L18.2637 138.078L20.1297 138.798L26.9229 121.189L25.057 120.469ZM8.84391 110.882L25.4451 121.667L26.5347 119.99L9.93351 109.205L8.84391 110.882ZM10.4816 79.7481C-1.86577 86.0364 -2.77559 103.333 8.84391 110.882L9.93351 109.205C-0.394935 102.495 0.413799 87.1199 11.3892 81.5303L10.4816 79.7481ZM25.2977 72.2025L10.4816 79.7481L11.3892 81.5303L26.2054 73.9847L25.2977 72.2025ZM18.4879 54.7884L24.8045 73.4148L26.6986 72.7724L20.382 54.1461L18.4879 54.7884ZM39.0513 31.3545C25.4619 28.6472 14.0378 41.6661 18.4879 54.7884L20.382 54.1461C16.4263 42.4818 26.5811 30.9095 38.6605 33.316L39.0513 31.3545ZM53.4154 34.2162L39.0513 31.3545L38.6605 33.316L53.0246 36.1776L53.4154 34.2162ZM56.3985 15.82L52.2427 34.985L54.1973 35.4088L58.3531 16.2438L56.3985 15.82ZM86.0888 6.30742C75.8296 -3.00647 59.335 2.27828 56.3985 15.82L58.3531 16.2438C60.9633 4.20675 75.6252 -0.4908 84.7445 7.78821L86.0888 6.30742ZM99.6019 18.5754L86.0888 6.30742L84.7445 7.78821L98.2576 20.0562L99.6019 18.5754ZM111.071 6.05278L98.2308 18.6006L99.6287 20.031L112.469 7.48321L111.071 6.05278Z" fill="#129490" mask="url(#path-2-outside-1_6_66)"/>
</svg>
